<svg width="36" height="34" viewBox="0 0 36 34" fill="none" xmlns="http://www.w3.org/2000/svg">
<path d="M10.8951 10.3411C14.919 17.3491 21.186 33.6001 30.0113 23.0672C32.3986 20.2178 33.9789 14.9349 33.2021 11.1157C30.8512 -0.442732 17.3913 6.81666 13.2151 12.6192C6.28612 22.2465 11.6298 31.8995 23.3077 26.4874C37.7833 19.7787 26.8966 4.2798 15.2936 3.81908C4.25243 3.38066 -2.18712 22.9785 6.55824 29.2586C16.4183 36.3392 35.8681 23.4379 32.9578 10.0501C30.371 -1.84984 11.4401 1.63957 9.00593 12.0445C7.06908 20.3235 15.7759 26.5371 20.6133 19.1002C23.7878 14.2197 19.8153 20.546 19.4835 24.5201" stroke="#2DD4BF" stroke-width="4.79934" stroke-linecap="round" stroke-linejoin="round"/>
</svg>
